<?xml version="1.0" encoding="UTF-8" standalone="no"?>
<!DOCTYPE svg PUBLIC "-//W3C//DTD SVG 1.1//EN"
 "http://www.w3.org/Graphics/SVG/1.1/DTD/svg11.dtd">
<!-- Generated by graphviz version 11.0.0 (20240428.1522)
 -->
<!-- Title: Hola Pages: 1 -->
<svg width="190pt" height="140pt"
 viewBox="0.00 0.00 190.17 139.75" xmlns="http://www.w3.org/2000/svg" xmlns:xlink="http://www.w3.org/1999/xlink">
<g id="graph0" class="graph" transform="scale(1 1) rotate(0) translate(4 135.75)">
<title>Hola</title>
<polygon fill="white" stroke="none" points="-4,4 -4,-135.75 186.17,-135.75 186.17,4 -4,4"/>
<text text-anchor="middle" x="91.08" y="-6.45" font-family="Times New Roman,serif" font-size="14.00">Hola soy un grafo</text>
<!-- nodo -->
<g id="node1" class="node">
<title>nodo</title>
<ellipse fill="blue" stroke="black" cx="31.6" cy="-41.75" rx="31.6" ry="18"/>
<text text-anchor="middle" x="31.6" y="-36.33" font-family="Times New Roman,serif" font-size="14.00" fill="red">Inicio</text>
</g>
<!-- nodo2 -->
<g id="node2" class="node">
<title>nodo2</title>
<ellipse fill="#57d959" stroke="black" cx="81.6" cy="-113.75" rx="27" ry="18"/>
<text text-anchor="middle" x="81.6" y="-108.33" font-family="Times New Roman,serif" font-size="14.00">Fin</text>
</g>
<!-- nodo2&#45;&gt;nodo -->
<g id="edge1" class="edge">
<title>nodo2&#45;&gt;nodo</title>
<path fill="none" stroke="black" d="M70.51,-97.21C64.38,-88.64 56.62,-77.77 49.64,-68"/>
<polygon fill="black" stroke="black" points="52.56,-66.06 43.9,-59.96 46.86,-70.13 52.56,-66.06"/>
</g>
<!-- nodo3 -->
<g id="node3" class="node">
<title>nodo3</title>
<ellipse fill="blue" stroke="black" cx="131.6" cy="-41.75" rx="50.56" ry="18"/>
<text text-anchor="middle" x="131.6" y="-36.33" font-family="Times New Roman,serif" font-size="14.00">Intermedio</text>
</g>
<!-- nodo2&#45;&gt;nodo3 -->
<g id="edge2" class="edge">
<title>nodo2&#45;&gt;nodo3</title>
<path fill="none" stroke="black" d="M92.7,-97.21C98.66,-88.88 106.15,-78.38 112.97,-68.83"/>
<polygon fill="black" stroke="black" points="115.64,-71.12 118.61,-60.94 109.95,-67.05 115.64,-71.12"/>
</g>
</g>
</svg>
